<svg xmlns="http://www.w3.org/2000/svg" width="11" height="11" viewBox="0 0 11 11" fill="none">
<path d="M2.72887 7.35929C2.61625 7.35929 2.50824 7.31384 2.4286 7.23294C2.34896 7.15205 2.30422 7.04232 2.30422 6.92791V3.35231C2.30422 3.2379 2.34896 3.12818 2.4286 3.04728C2.50824 2.96638 2.61625 2.92093 2.72887 2.92093H4.95536C5.06311 2.91881 5.1678 2.95738 5.24916 3.02917C5.33053 3.10096 5.38279 3.20087 5.39581 3.30954C5.40104 3.36859 5.39408 3.42809 5.37542 3.48427C5.35676 3.54044 5.32679 3.59205 5.28741 3.6358C5.24803 3.67956 5.20011 3.7145 5.1467 3.73841C5.09329 3.76231 5.03559 3.77465 4.97723 3.77464H3.14906C3.14788 3.77464 3.14676 3.77511 3.14592 3.77596C3.14509 3.77681 3.14461 3.77796 3.14461 3.77916V6.50065C3.14471 6.50178 3.14522 6.50283 3.14604 6.50359C3.14687 6.50435 3.14794 6.50477 3.14906 6.50477H10.1159C10.117 6.50467 10.118 6.50421 10.1187 6.50346C10.1195 6.50271 10.1199 6.50171 10.12 6.50065C10.12 4.77657 9.44578 3.1231 8.24568 1.90399C7.04557 0.684886 5.41789 3.90801e-08 3.72068 3.90801e-08H0.00444744C0.00333334 -4.64639e-06 0.00225744 0.00041213 0.00143306 0.00117343C0.00060869 0.00193472 0.000101273 0.00298297 0 0.00411003V2.916C-2.9977e-09 4.86893 0.763689 6.74188 2.12306 8.12285C3.48243 9.50382 5.32614 10.2797 7.24863 10.2798C8.01006 10.2798 8.74031 9.97254 9.27872 9.42561C9.81713 8.87868 10.1196 8.13688 10.1196 7.3634C10.1196 7.36227 10.1192 7.36117 10.1184 7.36034C10.1177 7.3595 10.1167 7.35898 10.1156 7.35888L2.72887 7.35929Z" fill="black"/>
</svg>