<svg class="h-5" version="1.1" id="logo" xmlns="http://www.w3.org/2000/svg" xmlns:xlink="http://www.w3.org/1999/xlink"
    viewBox="0 0 148.7 48.6" xml:space="preserve">
    <path class='leaf' id='leaf' d="M13.1,34.8c-1.1,0-2-0.9-2-2V15.9c0-1.1,0.9-2,2-2l10.7,0c1.1,0,2,0.8,2.1,1.8c0.1,1.2-0.8,2.2-2,2.2h-8.8
        c0,0,0,0,0,0v12.9c0,0,0,0,0,0h33.5c0,0,0,0,0,0v0C48.6,13.8,34.9,0,17.9,0L0,0c0,0,0,0,0,0v13.8C0,33,15.6,48.6,34.8,48.6h0
        c7.6,0,13.8-6.2,13.8-13.8v0c0,0,0,0,0,0H13.1z"/>
    <g>
        <path d="M81.4,7.1h-4.2c-0.5,0-0.9,0.4-0.9,0.9v28.2v4.8c0,0.5,0.4,0.9,0.9,0.9h4.2c0.5,0,0.9-0.4,0.9-0.9v-4.8V8.1
            C82.4,7.6,81.9,7.1,81.4,7.1z"/>
        <path d="M93.8,21.1c-3.2-0.1-6.4,0.6-6.8,0.8c-0.5,0.1-0.9,0.5-0.7,1.2l0.4,2.6c0.1,0.7,0.4,1.1,1.1,0.9
            c1.2-0.3,3.8-0.7,5.6-0.6s2.6,1,2.5,3.5c0,0-1.6-0.6-3.6-0.6c-5.1-0.1-8,2.6-8.1,6.1c0,0.2,0,0.4,0,0.5c0.1,3.9,2.7,6.4,6.6,6.4
            c3.1,0.1,5-1.4,6.1-2.4l0.6,1.4c0.2,0.6,0.5,0.7,0.8,0.7l1.8,0c0.5,0,1-0.4,1-0.9l0.1-4.7l0.1-6.1C101.4,24.5,100.1,21.2,93.8,21.1
            z M95.7,35.9c-0.3,0.6-1.9,1.9-3.5,1.9c-1.3,0-2.3-0.9-2.5-2.1c0-0.2,0-0.4,0-0.6c0-1.6,1.4-2.7,3.3-2.6c1.4,0,2.8,0.7,2.8,0.7
            L95.7,35.9L95.7,35.9z"/>
        <path d="M115.8,21.6c-3.8,0-6.3,2.1-7,2.9l-0.7-1.8c-0.1-0.3-0.4-0.6-0.8-0.6h-1.9c-0.5,0-0.9,0.4-0.9,0.9v13.4v4.6
            c0,0.5,0.4,0.9,0.9,0.9h3.7c0.9,0,1.2-0.2,1.2-0.9v-4.5v-6.5c0.5-1.3,2.1-3.1,4.7-3.1c2.4,0,3.7,1.6,3.7,4.2v5.5v4.4
            c0,0.5,0.4,0.9,0.9,0.9h4.1c0.5,0,0.9-0.4,0.9-0.9v-4.3v-5.3C124.6,26.3,122.1,21.6,115.8,21.6z"/>
        <path d="M148.5,40.6l-3.6-3.9l-5.3-5.7l7.4-7.6c0.5-0.5,0.2-1.4-0.6-1.4h-4.5c-0.5,0-0.9,0.3-1.2,0.6l-6.9,7V8.1
            c0-0.5-0.4-0.9-0.9-0.9h-4.2c-0.5,0-0.9,0.4-0.9,0.9v28.8v4.2c0,0.5,0.4,0.9,0.9,0.9h4.2c0.5,0,0.9-0.4,0.9-0.9v-4.2v-4.2l3.7,4.2
            l4.2,4.8c0.1,0.2,0.5,0.4,0.8,0.4h5.4C148.7,42,149,41.2,148.5,40.6z"/>
        <path d="M74.5,8.6c-0.9-0.8-3.2-1.9-5.9-1.9c-5.3,0-9.3,3.5-9.3,10.1v5.4h-1.7c-0.5,0-0.9,0.4-0.9,0.9v3.3
            c0,0.5,0.4,0.9,0.9,0.9h1.7v10.1v3.6c0,0.5,0.4,0.9,0.9,0.9h4.3c0.5,0,0.9-0.4,0.9-0.9v-3.9v-9.8h5c0.5,0,0.9-0.4,0.9-0.9V23
            c0-0.5-0.4-0.9-0.9-0.9h-5v-5.4c0-2.9,1.2-4.5,3.3-4.5c1.1,0,2.3,0.6,2.9,1c0.4,0.2,1,0.1,1.2-0.2l1.7-3.2
            C74.9,9.4,74.8,8.8,74.5,8.6z"/>
    </g>
</svg>