<svg width="6" height="8" viewBox="0 0 6 8" fill="none" xmlns="http://www.w3.org/2000/svg">
<path d="M1.91164 3.99898L5.54296 0.975253C5.67141 0.867893 5.74343 0.722407 5.74316 0.570799C5.74289 0.419192 5.67037 0.273882 5.54154 0.166837C5.4127 0.059791 5.23812 -0.000221637 5.05619 6.15124e-07C4.87426 0.000222867 4.69989 0.0606618 4.57144 0.168022L0.457402 3.59266C0.333101 3.69665 0.261672 3.83656 0.257964 3.9833C0.254256 4.13004 0.318554 4.27233 0.437493 4.38059L4.56859 7.83198C4.69705 7.93934 4.87142 7.99978 5.05335 8C5.23528 8.00022 5.40986 7.94021 5.53869 7.83316C5.66752 7.72612 5.74005 7.58081 5.74032 7.4292C5.74058 7.27759 5.66857 7.13211 5.54011 7.02475L1.91164 3.99898Z" fill="black"/>
</svg>
