<svg width="6" height="8" viewBox="0 0 6 8" fill="none" xmlns="http://www.w3.org/2000/svg">
<path d="M4.08836 4.00102L0.457042 7.02475C0.328587 7.13211 0.256572 7.27759 0.256838 7.4292C0.257105 7.58081 0.329632 7.72612 0.458464 7.83316C0.587296 7.94021 0.761879 8.00022 0.943808 8C1.12574 7.99978 1.30011 7.93934 1.42856 7.83198L5.5426 4.40734C5.6669 4.30335 5.73833 4.16344 5.74204 4.0167C5.74574 3.86996 5.68145 3.72767 5.56251 3.61941L1.43141 0.168021C1.30295 0.0606614 1.12858 0.00022228 0.946653 5.75982e-08C0.764724 -0.000222641 0.590141 0.0597906 0.461309 0.166836C0.332477 0.273881 0.25995 0.419191 0.259683 0.570799C0.259417 0.722406 0.331432 0.867892 0.459887 0.975252L4.08836 4.00102Z" fill="black"/>
</svg>
